<svg width="28" height="25" viewBox="0 0 28 25" fill="none" xmlns="http://www.w3.org/2000/svg">
<path d="M25.7867 2.14672C25.1057 1.46539 24.2971 0.924915 23.4071 0.556166C22.5172 0.187416 21.5633 -0.00238037 20.6 -0.00238037C19.6367 -0.00238037 18.6828 0.187416 17.7929 0.556166C16.9029 0.924915 16.0943 1.46539 15.4133 2.14672L14 3.56005L12.5867 2.14672C11.2111 0.771131 9.34537 -0.00166736 7.4 -0.00166734C5.45462 -0.00166733 3.58892 0.771131 2.21333 2.14672C0.83774 3.52231 0.0649414 5.38801 0.0649414 7.33339C0.0649414 9.27876 0.83774 11.1445 2.21333 12.5201L14 24.3067L25.7867 12.5201C26.468 11.839 27.0085 11.0305 27.3772 10.1405C27.746 9.25058 27.9358 8.2967 27.9358 7.33339C27.9358 6.37007 27.746 5.41619 27.3772 4.52625C27.0085 3.6363 26.468 2.82773 25.7867 2.14672Z" stroke="#1E1E1E" stroke-width="3" stroke-linecap="round" stroke-linejoin="round"/>
</svg>
