<svg width="41" height="41" viewBox="0 0 41 41" fill="none" xmlns="http://www.w3.org/2000/svg">
<path d="M22.9771 4.32552C22.2839 3.74131 21.4065 3.4209 20.5 3.4209C19.5935 3.4209 18.7161 3.74131 18.0229 4.32552L6.49167 14.0494C6.06366 14.4101 5.7196 14.8599 5.48354 15.3675C5.24748 15.875 5.12512 16.4279 5.125 16.9877V32.8923C5.125 34.5425 6.46433 35.8819 8.11458 35.8819H14.0938C14.8866 35.8819 15.647 35.5669 16.2077 35.0062C16.7684 34.4456 17.0833 33.6852 17.0833 32.8923V24.3386C17.0833 24.2254 17.1283 24.1167 17.2084 24.0366C17.2885 23.9566 17.3971 23.9116 17.5104 23.9116H23.4896C23.6029 23.9116 23.7115 23.9566 23.7916 24.0366C23.8717 24.1167 23.9167 24.2254 23.9167 24.3386V30.135C24.6439 29.5288 25.5368 29.1556 26.4792 29.0639V27.851C25.9202 26.9208 25.6249 25.8561 25.625 24.7709C25.625 24.0431 25.7548 23.3478 25.9923 22.7038C25.7206 22.2878 25.3494 21.9461 24.9125 21.7095C24.4755 21.473 23.9865 21.3491 23.4896 21.3491H17.5104C16.7175 21.3491 15.9571 21.664 15.3965 22.2247C14.8358 22.7853 14.5208 23.5458 14.5208 24.3386V32.8923C14.5208 33.0055 14.4758 33.1142 14.3957 33.1943C14.3157 33.2744 14.207 33.3194 14.0938 33.3194H8.11458C8.00131 33.3194 7.89268 33.2744 7.81259 33.1943C7.7325 33.1142 7.6875 33.0055 7.6875 32.8923V16.9877C7.68769 16.8012 7.72861 16.6169 7.80739 16.4478C7.88618 16.2788 8.00093 16.1289 8.14363 16.0088L19.6749 6.28498C19.9059 6.09054 20.1981 5.98392 20.5 5.98392C20.8019 5.98392 21.0941 6.09054 21.3251 6.28498L32.8564 16.0088C32.9991 16.1289 33.1138 16.2788 33.1926 16.4478C33.2714 16.6169 33.3123 16.8012 33.3125 16.9877V19.0377C34.2965 19.3315 35.1746 19.8714 35.875 20.5854V16.9894C35.8749 16.4297 35.7525 15.8767 35.5165 15.3692C35.2804 14.8616 34.9363 14.4118 34.5083 14.0511L22.9771 4.32552ZM35.875 24.7709C35.875 25.9035 35.425 26.9899 34.6241 27.7908C33.8232 28.5917 32.7369 29.0417 31.6042 29.0417C30.4715 29.0417 29.3852 28.5917 28.5842 27.7908C27.7833 26.9899 27.3333 25.9035 27.3333 24.7709C27.3333 23.6382 27.7833 22.5519 28.5842 21.7509C29.3852 20.95 30.4715 20.5 31.6042 20.5C32.7369 20.5 33.8232 20.95 34.6241 21.7509C35.425 22.5519 35.875 23.6382 35.875 24.7709ZM39.2917 33.9531C39.2917 36.6113 37.0948 39.2917 31.6042 39.2917C26.1136 39.2917 23.9167 36.6216 23.9167 33.9531V33.7772C23.9167 32.103 25.2731 30.75 26.9455 30.75H36.2628C37.937 30.75 39.2917 32.1047 39.2917 33.7772V33.9531Z" fill="black"/>
</svg>
