<svg width="36" height="29" viewBox="0 0 36 29" fill="none" xmlns="http://www.w3.org/2000/svg">
<path d="M0.916666 2.54171C0.916666 2.08863 1.09665 1.65411 1.41703 1.33373C1.7374 1.01336 2.17192 0.833374 2.625 0.833374H33.375C33.8281 0.833374 34.2626 1.01336 34.583 1.33373C34.9034 1.65411 35.0833 2.08863 35.0833 2.54171V26.4584C35.0833 26.9115 34.9034 27.346 34.583 27.6664C34.2626 27.9867 33.8281 28.1667 33.375 28.1667H2.625C2.17192 28.1667 1.7374 27.9867 1.41703 27.6664C1.09665 27.346 0.916666 26.9115 0.916666 26.4584V2.54171Z" stroke="black" stroke-width="2.5" stroke-linejoin="round"/>
<path d="M28.25 0.833374V28.1667M7.75 0.833374V28.1667M29.9583 9.37504H35.0833M29.9583 19.625H35.0833M0.916666 9.37504H6.04167M0.916666 7.66671V11.0834M5.1875 0.833374H10.3125M5.1875 28.1667H10.3125M25.6875 0.833374H30.8125M25.6875 28.1667H30.8125M0.916666 19.625H6.04167M0.916666 17.9167V21.3334M35.0833 17.9167V21.3334M35.0833 7.66671V11.0834" stroke="black" stroke-width="2.5" stroke-linecap="round" stroke-linejoin="round"/>
<path d="M15.4375 10.2292L22.2708 14.5001L15.4375 18.7709V10.2292Z" stroke="black" stroke-width="2.5" stroke-linejoin="round"/>
</svg>
