<svg width="42" height="41" viewBox="0 0 42 41" fill="none" xmlns="http://www.w3.org/2000/svg">
<g clip-path="url(#clip0_123_70)">
<path d="M12.4583 30.75V29.0417C12.4583 26.7763 13.3582 24.6037 14.9601 23.0018C16.562 21.3999 18.7346 20.5 21 20.5M21 20.5C23.2654 20.5 25.438 21.3999 27.0398 23.0018C28.6417 24.6037 29.5416 26.7763 29.5416 29.0417V30.75M21 20.5C22.3592 20.5 23.6628 19.96 24.6239 18.9989C25.585 18.0378 26.125 16.7342 26.125 15.375C26.125 14.0158 25.585 12.7122 24.6239 11.7511C23.6628 10.79 22.3592 10.25 21 10.25C19.6407 10.25 18.3372 10.79 17.3761 11.7511C16.4149 12.7122 15.875 14.0158 15.875 15.375C15.875 16.7342 16.4149 18.0378 17.3761 18.9989C18.3372 19.96 19.6407 20.5 21 20.5ZM2.20831 30.75V29.0417C2.20831 27.6824 2.74827 26.3789 3.70939 25.4177C4.67051 24.4566 5.97408 23.9167 7.33331 23.9167M7.33331 23.9167C8.23947 23.9167 9.10851 23.5567 9.74926 22.9159C10.39 22.2752 10.75 21.4062 10.75 20.5C10.75 19.5938 10.39 18.7248 9.74926 18.0841C9.10851 17.4433 8.23947 17.0833 7.33331 17.0833C6.42716 17.0833 5.55811 17.4433 4.91736 18.0841C4.27662 18.7248 3.91665 19.5938 3.91665 20.5C3.91665 21.4062 4.27662 22.2752 4.91736 22.9159C5.55811 23.5567 6.42716 23.9167 7.33331 23.9167ZM39.7916 30.75V29.0417C39.7916 27.6824 39.2517 26.3789 38.2906 25.4177C37.3294 24.4566 36.0259 23.9167 34.6666 23.9167M34.6666 23.9167C35.5728 23.9167 36.4418 23.5567 37.0826 22.9159C37.7233 22.2752 38.0833 21.4062 38.0833 20.5C38.0833 19.5938 37.7233 18.7248 37.0826 18.0841C36.4418 17.4433 35.5728 17.0833 34.6666 17.0833C33.7605 17.0833 32.8914 17.4433 32.2507 18.0841C31.6099 18.7248 31.25 19.5938 31.25 20.5C31.25 21.4062 31.6099 22.2752 32.2507 22.9159C32.8914 23.5567 33.7605 23.9167 34.6666 23.9167Z" stroke="black" stroke-width="2.5" stroke-linecap="round" stroke-linejoin="round"/>
</g>
<defs>
<clipPath id="clip0_123_70">
<rect width="41" height="41" fill="white" transform="translate(0.5)"/>
</clipPath>
</defs>
</svg>
