<svg width="45" height="45" viewBox="0 0 45 45" fill="none" xmlns="http://www.w3.org/2000/svg">
<path d="M39.7107 13.1467L31.8551 5.29101C31.6266 5.06246 31.3553 4.88117 31.0567 4.75748C30.7581 4.63379 30.438 4.57013 30.1149 4.57013C29.7917 4.57013 29.4716 4.63379 29.173 4.75748C28.8744 4.88117 28.6031 5.06246 28.3746 5.29101L6.69727 26.9666C6.46829 27.1948 6.28672 27.466 6.16303 27.7647C6.03934 28.0634 5.97597 28.3836 5.97657 28.7068V36.5625C5.97657 37.2152 6.23584 37.8411 6.69736 38.3026C7.15887 38.7642 7.78482 39.0234 8.4375 39.0234H16.2932C16.6164 39.024 16.9366 38.9607 17.2353 38.837C17.534 38.7133 17.8052 38.5317 18.0334 38.3027L33.1787 23.1574L33.9891 26.3953L27.3797 33.0047C27.2805 33.1024 27.2016 33.2188 27.1477 33.3471C27.0937 33.4754 27.0656 33.6132 27.0651 33.7524C27.0647 33.8916 27.0918 34.0296 27.1448 34.1583C27.1979 34.287 27.276 34.4039 27.3745 34.5023C27.473 34.6007 27.59 34.6786 27.7188 34.7315C27.8475 34.7845 27.9855 34.8114 28.1247 34.8107C28.264 34.8101 28.4017 34.7819 28.5299 34.7277C28.6582 34.6736 28.7745 34.5946 28.8721 34.4953L35.9033 27.4641C36.0322 27.3353 36.1256 27.1753 36.1742 26.9997C36.2229 26.8241 36.2253 26.6389 36.1811 26.4621L34.9189 21.4172L39.7107 16.6271C39.9393 16.3986 40.1206 16.1273 40.2443 15.8287C40.368 15.5301 40.4316 15.2101 40.4316 14.8869C40.4316 14.5637 40.368 14.2437 40.2443 13.9451C40.1206 13.6465 39.9393 13.3752 39.7107 13.1467ZM8.08594 36.5625V30.6721L14.3297 36.9141H8.4375C8.34426 36.9141 8.25484 36.877 8.18891 36.8111C8.12298 36.7452 8.08594 36.6557 8.08594 36.5625ZM16.875 36.4764L8.52188 28.125L23.9063 12.7424L32.2594 21.0937L16.875 36.4764ZM38.2184 15.1348L33.75 19.6031L25.3986 11.25L29.8652 6.78339C29.8979 6.75071 29.9367 6.72478 29.9793 6.70708C30.022 6.68939 30.0678 6.68028 30.114 6.68028C30.1602 6.68028 30.2059 6.68939 30.2486 6.70708C30.2913 6.72478 30.33 6.75071 30.3627 6.78339L38.2184 14.6373C38.2511 14.6699 38.277 14.7087 38.2947 14.7514C38.3124 14.7941 38.3215 14.8398 38.3215 14.886C38.3215 14.9322 38.3124 14.978 38.2947 15.0207C38.277 15.0633 38.2511 15.1021 38.2184 15.1348Z" fill="white"/>
</svg>
