<svg width="41" height="41" viewBox="0 0 41 41" fill="none" xmlns="http://www.w3.org/2000/svg">
<path d="M27.3334 35.875V32.4583C27.3334 30.646 26.6134 28.9079 25.3319 27.6264C24.0504 26.3449 22.3124 25.625 20.5 25.625H8.54171C6.7294 25.625 4.99131 26.3449 3.70981 27.6264C2.42831 28.9079 1.70837 30.646 1.70837 32.4583V35.875M34.1667 13.6667V23.9167M39.2917 18.7917H29.0417M21.3542 11.9583C21.3542 15.7323 18.2948 18.7917 14.5209 18.7917C10.7469 18.7917 7.68754 15.7323 7.68754 11.9583C7.68754 8.18439 10.7469 5.125 14.5209 5.125C18.2948 5.125 21.3542 8.18439 21.3542 11.9583Z" stroke="#1E1E1E" stroke-width="2.5" stroke-linecap="round" stroke-linejoin="round"/>
</svg>
